<?xml version="1.0" encoding="UTF-8" standalone="no"?>
<!DOCTYPE svg PUBLIC "-//W3C//DTD SVG 1.1//EN" "http://www.w3.org/Graphics/SVG/1.1/DTD/svg11.dtd">
<!-- Generated by Microsoft Visio, SVG Export ACMESharp-logo.svg Page-1 -->
<svg xmlns="http://www.w3.org/2000/svg" xmlns:xlink="http://www.w3.org/1999/xlink" xmlns:ev="http://www.w3.org/2001/xml-events"
		xmlns:v="http://schemas.microsoft.com/visio/2003/SVGExtensions/" width="0.80459in" height="1.34104in"
		viewBox="0 0 57.9305 96.5552" xml:space="preserve" color-interpolation-filters="sRGB" class="st9">
	<v:documentProperties v:langID="1033" v:viewMarkup="false"/>

	<style type="text/css">
	<![CDATA[
		.st1 {fill:#000000;stroke:#000000;stroke-linecap:round;stroke-linejoin:round;stroke-width:0.75}
		.st2 {fill:#000000;font-family:Calibri;font-size:1.00001em}
		.st3 {fill:#d8d8d8;stroke:#ffffff;stroke-linecap:round;stroke-linejoin:round;stroke-width:3}
		.st4 {fill:#7f7f7f;stroke:#ffffff;stroke-linecap:round;stroke-linejoin:round;stroke-width:0.25}
		.st5 {fill:#ffffff;stroke:#ffffff;stroke-linecap:round;stroke-linejoin:round;stroke-width:6}
		.st6 {fill:#f2f2f2;stroke:#ffffff;stroke-linecap:round;stroke-linejoin:round;stroke-width:0.75}
		.st7 {fill:#7f7f7f;stroke:#7f7f7f;stroke-linecap:round;stroke-linejoin:round;stroke-width:0.75}
		.st8 {stroke:#ffffff;stroke-linecap:round;stroke-linejoin:round;stroke-width:1.5}
		.st9 {fill:none;fill-rule:evenodd;font-size:12px;overflow:visible;stroke-linecap:square;stroke-miterlimit:3}
	]]>
	</style>

	<g v:mID="0" v:index="1" v:groupContext="foregroundPage">
		<title>Page-1</title>
		<v:pageProperties v:drawingScale="1" v:pageScale="1" v:drawingUnits="19" v:shadowOffsetX="9" v:shadowOffsetY="-9"/>
		<g id="group275-1" transform="translate(0.375,-0.375)" v:mID="275" v:groupContext="group">
			<title>Sheet.275</title>
			<g id="group274-2" transform="translate(0,-19.3333)" v:mID="274" v:groupContext="group">
				<title>Sheet.274</title>
				<g id="shape236-3" v:mID="236" v:groupContext="shape">
					<title>Sheet.236</title>
					<desc>g</desc>
					<v:textBlock v:margins="rect(4,4,4,4)"/>
					<v:textRect cx="27" cy="69.5552" width="54" height="54"/>
					<rect x="0" y="42.5552" width="54" height="54" rx="9" ry="9" class="st1"/>
					<text x="24.18" y="73.16" class="st2" v:langID="1033"><v:paragraph v:horizAlign="1"/><v:tabList/>g</text>				</g>
				<g id="group273-6" transform="translate(9,-52.8469)" v:mID="273" v:groupContext="group">
					<title>Sheet.273</title>
					<g id="shape247-7" v:mID="247" v:groupContext="shape">
						<title>Sheet.247</title>
						<path d="M0 92.06 A18 18 0 0 1 18 74.06 A18 18 0 0 1 36 92.06 L36 96.56 L29.25 96.56 L29.25 92.06 A11.25
									 11.25 -180 0 0 18 80.81 A11.25 11.25 -180 0 0 6.75 92.06 L6.75 96.56 L0 96.56 L0 92.06 Z"
								class="st3"/>
					</g>
					<g id="shape248-9" v:mID="248" v:groupContext="shape">
						<title>Sheet.248</title>
						<path d="M0 92.06 A18 18 0 0 1 18 74.06 A18 18 0 0 1 36 92.06 L36 96.56 L29.25 96.56 L29.25 92.06 A11.25
									 11.25 -180 0 0 18 80.81 A11.25 11.25 -180 0 0 6.75 92.06 L6.75 96.56 L0 96.56 L0 92.06 Z"
								class="st4"/>
					</g>
				</g>
			</g>
			<g id="shape269-11" v:mID="269" v:groupContext="shape" transform="translate(36,-19.474)">
				<title>Sheet.269</title>
				<rect x="0" y="78.8365" width="18" height="17.7188" class="st5"/>
			</g>
			<g id="group268-13" transform="translate(28.5563,5.68434E-14)" v:mID="268" v:groupContext="group">
				<title>Sheet.268</title>
				<g id="group242-14" v:mID="242" v:groupContext="group">
					<title>Sheet.242</title>
					<g id="shape243-15" v:mID="243" v:groupContext="shape" transform="translate(-3.18047,-14.3121)">
						<title>Sheet.243</title>
						<ellipse cx="15.9023" cy="80.6529" rx="15.9023" ry="15.9023" class="st6"/>
					</g>
					<g id="shape244-17" v:mID="244" v:groupContext="shape" transform="translate(3.18047,0)">
						<title>Sheet.244</title>
						<path d="M3.18 77.47 L15.9 77.47 L19.08 96.56 L9.54 90 L0 96.56 L3.18 77.47 Z" class="st7"/>
					</g>
					<g id="shape245-19" v:mID="245" v:groupContext="shape" transform="translate(0,-17.4926)">
						<title>Sheet.245</title>
						<ellipse cx="12.7219" cy="83.8333" rx="12.7219" ry="12.7219" class="st7"/>
					</g>
				</g>
				<g id="group237-21" transform="translate(8.22187,-25.5129)" v:mID="237" v:groupContext="group">
					<title>Sheet.237</title>
					<g id="shape238-22" v:mID="238" v:groupContext="shape" transform="translate(0,-6)">
						<title>Sheet.238</title>
						<path d="M0 96.56 L9 96.56" class="st8"/>
					</g>
					<g id="shape239-25" v:mID="239" v:groupContext="shape" transform="translate(0,-3)">
						<title>Sheet.239</title>
						<path d="M0 96.56 L9 96.56" class="st8"/>
					</g>
					<g id="shape240-28" v:mID="240" v:groupContext="shape" transform="translate(98.2802,106.491) rotate(101.31)">
						<title>Sheet.240</title>
						<path d="M0 96.56 L9.18 96.56" class="st8"/>
					</g>
					<g id="shape241-31" v:mID="241" v:groupContext="shape" transform="translate(-89.2802,77.6192) rotate(-78.6901)">
						<title>Sheet.241</title>
						<path d="M0 96.56 L9.18 96.56" class="st8"/>
					</g>
				</g>
			</g>
		</g>
	</g>
</svg>
